HIERARCHY
ROOT Hips
{
	OFFSET 0.000000 100.481300 0.000000
	CHANNELS 6 Xposition Yposition Zposition Xrotation Yrotation Zrotation
	JOINT Spine
	{
		OFFSET -0.279200 12.230698 -2.892100
		CHANNELS 3 Xrotation Yrotation Zrotation
		JOINT Spine1
		{
			OFFSET -0.325700 14.269203 -3.374200
			CHANNELS 3 Xrotation Yrotation Zrotation
			JOINT Spine2
			{
				OFFSET -0.372300 16.307602 -0.352600
				CHANNELS 3 Xrotation Yrotation Zrotation
				JOINT Neck
				{
					OFFSET -0.418800 17.814194 8.416900
					CHANNELS 3 Xrotation Yrotation Zrotation
					JOINT Head
					{
						OFFSET 0.000000 7.031097 3.806800
						CHANNELS 3 Xrotation Yrotation Zrotation
						JOINT HeadTop_End
						{
							OFFSET 0.000000 24.646606 12.978600
							CHANNELS 3 Xrotation Yrotation Zrotation
							End Site
							{
								OFFSET 0.000000 27.854965 0.000000
							}
						}
					}
				}
				JOINT LeftShoulder
				{
					OFFSET 16.952999 14.495407 -7.737500
					CHANNELS 3 Xrotation Yrotation Zrotation
					JOINT LeftArm
					{
						OFFSET 9.308998 -2.777710 0.208600
						CHANNELS 3 Xrotation Yrotation Zrotation
						JOINT LeftForeArm
						{
							OFFSET 29.972298 0.000000 0.000000
							CHANNELS 3 Xrotation Yrotation Zrotation
							JOINT LeftHand
							{
								OFFSET 26.026505 0.000000 0.000000
								CHANNELS 3 Xrotation Yrotation Zrotation
								JOINT LeftHandThumb1
								{
									OFFSET 12.240501 -7.147949 9.207150
									CHANNELS 3 Xrotation Yrotation Zrotation
									JOINT LeftHandThumb2
									{
										OFFSET 4.138618 -2.389435 2.389433
										CHANNELS 3 Xrotation Yrotation Zrotation
										JOINT LeftHandThumb3
										{
											OFFSET 2.726913 -1.574387 1.574386
											CHANNELS 3 Xrotation Yrotation Zrotation
											JOINT LeftHandThumb4
											{
												OFFSET 3.941010 -2.275345 2.275342
												CHANNELS 3 Xrotation Yrotation Zrotation
												End Site
												{
													OFFSET -0.005798 5.087799 0.009903
												}
											}
										}
									}
								}
								JOINT LeftHandIndex1
								{
									OFFSET 24.424698 -1.985611 5.953459
									CHANNELS 3 Xrotation Yrotation Zrotation
									JOINT LeftHandIndex2
									{
										OFFSET 6.426697 0.000000 0.000000
										CHANNELS 3 Xrotation Yrotation Zrotation
										JOINT LeftHandIndex3
										{
											OFFSET 5.337898 0.000000 0.000000
											CHANNELS 3 Xrotation Yrotation Zrotation
											JOINT LeftHandIndex4
											{
												OFFSET 4.409401 0.000000 0.000000
												CHANNELS 3 Xrotation Yrotation Zrotation
												End Site
												{
													OFFSET 0.000000 4.409363 0.014373
												}
											}
										}
									}
								}
								JOINT LeftHandMiddle1
								{
									OFFSET 23.810104 0.000000 0.000000
									CHANNELS 3 Xrotation Yrotation Zrotation
									JOINT LeftHandMiddle2
									{
										OFFSET 7.176498 0.000000 0.000000
										CHANNELS 3 Xrotation Yrotation Zrotation
										JOINT LeftHandMiddle3
										{
											OFFSET 6.774902 0.000000 0.000000
											CHANNELS 3 Xrotation Yrotation Zrotation
											JOINT LeftHandMiddle4
											{
												OFFSET 5.403328 0.000000 0.000000
												CHANNELS 3 Xrotation Yrotation Zrotation
												End Site
												{
													OFFSET -0.027702 5.403244 0.017414
												}
											}
										}
									}
								}
								JOINT LeftHandRing1
								{
									OFFSET 22.908401 -0.839279 -6.020567
									CHANNELS 3 Xrotation Yrotation Zrotation
									JOINT LeftHandRing2
									{
										OFFSET 6.337502 0.000000 0.000000
										CHANNELS 3 Xrotation Yrotation Zrotation
										JOINT LeftHandRing3
										{
											OFFSET 5.779297 0.000000 0.000000
											CHANNELS 3 Xrotation Yrotation Zrotation
											JOINT LeftHandRing4
											{
												OFFSET 4.965698 0.000000 0.000000
												CHANNELS 3 Xrotation Yrotation Zrotation
												End Site
												{
													OFFSET 0.000000 4.965668 0.016186
												}
											}
										}
									}
								}
								JOINT LeftHandPinky1
								{
									OFFSET 20.037003 -1.530319 -10.950146
									CHANNELS 3 Xrotation Yrotation Zrotation
									JOINT LeftHandPinky2
									{
										OFFSET 5.254700 0.000000 0.000000
										CHANNELS 3 Xrotation Yrotation Zrotation
										JOINT LeftHandPinky3
										{
											OFFSET 4.810204 0.000000 0.000000
											CHANNELS 3 Xrotation Yrotation Zrotation
											JOINT LeftHandPinky4
											{
												OFFSET 3.647202 0.000000 0.000000
												CHANNELS 3 Xrotation Yrotation Zrotation
												End Site
												{
													OFFSET 0.000000 3.647186 0.011889
												}
											}
										}
									}
								}
							}
						}
					}
				}
				JOINT RightShoulder
				{
					OFFSET -15.141001 14.495407 -7.737500
					CHANNELS 3 Xrotation Yrotation Zrotation
					JOINT RightArm
					{
						OFFSET -9.308998 -2.777710 0.208500
						CHANNELS 3 Xrotation Yrotation Zrotation
						JOINT RightForeArm
						{
							OFFSET -29.972300 0.000000 0.000000
							CHANNELS 3 Xrotation Yrotation Zrotation
							JOINT RightHand
							{
								OFFSET -26.026505 0.000000 0.000000
								CHANNELS 3 Xrotation Yrotation Zrotation
								JOINT RightHandThumb1
								{
									OFFSET -12.240601 -7.148026 9.207092
									CHANNELS 3 Xrotation Yrotation Zrotation
									JOINT RightHandThumb2
									{
										OFFSET -4.138618 -2.389435 2.389433
										CHANNELS 3 Xrotation Yrotation Zrotation
										JOINT RightHandThumb3
										{
											OFFSET -2.726974 -1.574417 1.574421
											CHANNELS 3 Xrotation Yrotation Zrotation
											JOINT RightHandThumb4
											{
												OFFSET -3.941010 -2.275345 2.275343
												CHANNELS 3 Xrotation Yrotation Zrotation
												End Site
												{
													OFFSET 0.005814 5.087799 0.009927
												}
											}
										}
									}
								}
								JOINT RightHandIndex1
								{
									OFFSET -24.424698 -1.985657 5.953444
									CHANNELS 3 Xrotation Yrotation Zrotation
									JOINT RightHandIndex2
									{
										OFFSET -6.426697 0.000000 0.000000
										CHANNELS 3 Xrotation Yrotation Zrotation
										JOINT RightHandIndex3
										{
											OFFSET -5.337898 0.000000 0.000000
											CHANNELS 3 Xrotation Yrotation Zrotation
											JOINT RightHandIndex4
											{
												OFFSET -4.409401 0.000000 0.000000
												CHANNELS 3 Xrotation Yrotation Zrotation
												End Site
												{
													OFFSET 0.000000 4.409363 0.014408
												}
											}
										}
									}
								}
								JOINT RightHandMiddle1
								{
									OFFSET -23.810097 0.000000 0.000000
									CHANNELS 3 Xrotation Yrotation Zrotation
									JOINT RightHandMiddle2
									{
										OFFSET -7.176498 0.000000 0.000000
										CHANNELS 3 Xrotation Yrotation Zrotation
										JOINT RightHandMiddle3
										{
											OFFSET -6.774902 0.000000 0.000000
											CHANNELS 3 Xrotation Yrotation Zrotation
											JOINT RightHandMiddle4
											{
												OFFSET -5.403328 0.000000 0.000000
												CHANNELS 3 Xrotation Yrotation Zrotation
												End Site
												{
													OFFSET 0.027702 5.403244 0.017457
												}
											}
										}
									}
								}
								JOINT RightHandRing1
								{
									OFFSET -22.908302 -0.839325 -6.020576
									CHANNELS 3 Xrotation Yrotation Zrotation
									JOINT RightHandRing2
									{
										OFFSET -6.337502 0.000000 0.000000
										CHANNELS 3 Xrotation Yrotation Zrotation
										JOINT RightHandRing3
										{
											OFFSET -5.779297 0.000000 0.000000
											CHANNELS 3 Xrotation Yrotation Zrotation
											JOINT RightHandRing4
											{
												OFFSET -4.965698 0.000000 0.000000
												CHANNELS 3 Xrotation Yrotation Zrotation
												End Site
												{
													OFFSET 0.000000 4.965668 0.016226
												}
											}
										}
									}
								}
								JOINT RightHandPinky1
								{
									OFFSET -20.037003 -1.530334 -10.950259
									CHANNELS 3 Xrotation Yrotation Zrotation
									JOINT RightHandPinky2
									{
										OFFSET -5.254700 0.000000 0.000000
										CHANNELS 3 Xrotation Yrotation Zrotation
										JOINT RightHandPinky3
										{
											OFFSET -4.810204 0.000000 0.000000
											CHANNELS 3 Xrotation Yrotation Zrotation
											JOINT RightHandPinky4
											{
												OFFSET -3.647202 0.000000 0.000000
												CHANNELS 3 Xrotation Yrotation Zrotation
												End Site
												{
													OFFSET 0.000000 3.647186 0.011917
												}
											}
										}
									}
								}
							}
						}
					}
				}
			}
		}
	}
	JOINT LeftUpLeg
	{
		OFFSET 15.427100 -6.655098 0.678600
		CHANNELS 3 Xrotation Yrotation Zrotation
		JOINT LeftLeg
		{
			OFFSET 4.081073 -39.591068 13.024000
			CHANNELS 3 Xrotation Yrotation Zrotation
			JOINT LeftFoot
			{
				OFFSET -4.081074 -37.707932 -15.979700
				CHANNELS 3 Xrotation Yrotation Zrotation
				JOINT LeftToeBase
				{
					OFFSET 5.346399 -15.068900 20.645000
					CHANNELS 3 Xrotation Yrotation Zrotation
					JOINT LeftToe_End
					{
						OFFSET 2.754700 0.931300 11.300900
						CHANNELS 3 Xrotation Yrotation Zrotation
						End Site
						{
							OFFSET 0.000000 11.669021 0.000000
						}
					}
				}
			}
		}
	}
	JOINT RightUpLeg
	{
		OFFSET -15.569500 -6.655098 0.678600
		CHANNELS 3 Xrotation Yrotation Zrotation
		JOINT RightLeg
		{
			OFFSET -4.081825 -39.591045 13.023800
			CHANNELS 3 Xrotation Yrotation Zrotation
			JOINT RightFoot
			{
				OFFSET 4.081824 -37.707954 -15.979600
				CHANNELS 3 Xrotation Yrotation Zrotation
				JOINT RightToeBase
				{
					OFFSET -5.346400 -15.068900 20.645000
					CHANNELS 3 Xrotation Yrotation Zrotation
					JOINT RightToe_End
					{
						OFFSET -2.754700 0.931300 11.300900
						CHANNELS 3 Xrotation Yrotation Zrotation
						End Site
						{
							OFFSET 0.000000 11.669021 0.000000
						}
					}
				}
			}
		}
	}
}
MOTION
Frames: 4
Frame Time: 0.033333
20.577221 86.326454 1.445318 -18.942278 45.505049 15.410659 9.096157 -0.092554 -0.326430 18.365913 -0.228565 0.501395 18.424157 -0.296972 0.469360 -3.380002 7.822824 -0.987943 -6.052098 21.638715 9.870185 0.000000 0.000000 0.000001 -37.522850 -5.402229 0.007391 -48.272632 -11.576733 -61.683425 -0.000008 -60.149549 0.000005 -119.537313 1.551204 30.495791 4.709228 9.560377 3.111990 19.473192 -1.474910 7.636924 -4.536187 -9.613113 1.492976 -0.000002 -0.000001 -0.000001 -1.543396 1.534208 -32.802813 2.860720 5.031488 -59.220609 0.475234 2.313261 -23.215866 -0.000000 0.000001 0.000000 -0.391713 4.592883 -48.601068 3.404834 5.316791 -65.248449 0.287947 1.815787 -18.020532 0.000001 -0.000000 -0.000002 -0.107231 5.509037 -58.107431 4.025606 5.559970 -71.791360 0.569076 2.520614 -25.440658 -0.000000 -0.000001 -0.000001 -6.733426 4.492015 -72.429471 2.595448 4.864316 -56.145675 0.179643 1.441086 -14.210762 -0.000003 0.000000 0.000001 -41.052647 -8.843215 -9.228999 -46.473198 55.135100 98.482360 -0.000471 98.330409 0.000459 -49.834771 -18.044163 -27.506215 10.609787 -0.762733 13.151737 21.866518 -17.920313 -18.464858 -3.068134 -49.887722 -34.792591 0.000002 0.000002 -0.000001 -0.984815 1.885353 12.669908 0.748616 -2.534251 32.909774 0.615639 -2.316060 29.767826 -0.000000 0.000000 -0.000002 3.706303 -7.300187 54.011449 6.296978 -4.359524 110.636654 0.248709 -1.503064 18.790267 -0.000000 0.000000 -0.000000 -3.319599 -2.726134 57.791842 5.423790 -4.593780 99.484799 1.676005 -3.579566 50.167644 0.000000 -0.000000 0.000002 -3.978310 -3.430968 65.416232 4.002455 -4.611027 81.909534 2.266496 -3.997886 59.086184 -0.000000 -0.000001 -0.000000 -29.466348 41.911465 33.927903 33.396896 -2.036888 -2.623540 -2.348445 1.397302 -0.323917 1.517670 -0.000025 0.000082 -0.000000 -0.000000 0.000000 -0.245915 7.949174 -8.866303 41.360706 -4.832822 -0.161269 -19.409670 -10.300977 13.623710 -7.248482 0.000021 0.000003 0.000000 -0.000001 0.000000 
21.317045 86.385925 2.101746 -19.490450 45.881724 15.964993 8.859134 0.177913 -0.432446 17.940650 0.401780 0.222731 18.022398 0.302079 0.199079 -2.374682 7.557771 -0.690413 -5.986165 20.850365 9.832912 -0.000001 -0.000000 -0.000000 -37.800070 -6.863874 0.337860 -49.484184 -11.866392 -61.377494 0.000028 -58.860692 0.000026 -118.906039 2.700042 30.502669 4.709227 9.560374 3.111990 19.473192 -1.474907 7.636925 -4.536190 -9.613118 1.492974 0.000001 -0.000002 0.000000 -1.338843 1.978729 -33.596321 2.849870 5.025024 -59.096764 0.470518 2.302212 -23.098489 0.000000 0.000000 -0.000001 -0.192410 4.824295 -49.337544 3.420255 5.323816 -65.414935 0.293246 1.832027 -18.187295 0.000000 0.000003 0.000002 -0.121160 5.529890 -58.531279 4.040868 5.564944 -71.948946 0.576037 2.535209 -25.598716 0.000001 -0.000001 -0.000002 -6.705671 4.500797 -72.428658 2.708578 4.938036 -57.469799 0.181257 1.447466 -14.275026 0.000001 0.000001 -0.000004 -41.042125 -8.425561 -9.015201 -45.716321 54.667010 97.603554 -0.000108 98.560518 0.000133 -49.782653 -16.709458 -28.885526 10.113917 -1.814107 12.675573 21.741935 -18.052562 -18.438849 -2.756702 -49.882415 -34.495324 0.000002 0.000000 0.000001 -0.989279 1.973102 12.518523 0.748769 -2.534489 32.913227 0.615638 -2.316060 29.767826 -0.000000 0.000000 0.000002 3.584386 -7.249874 53.160694 6.305494 -4.356326 110.748847 0.248718 -1.503066 18.790270 -0.000000 0.000000 -0.000000 -3.305227 -2.693338 57.482544 5.425863 -4.593436 99.510747 1.677534 -3.580864 50.192420 0.000000 0.000001 -0.000001 -3.934884 -3.382027 64.934233 3.999971 -4.610671 81.878737 2.264243 -3.996552 59.054007 0.000000 0.000001 0.000003 -28.717066 42.157550 34.189933 33.178822 -2.701279 -2.977133 -2.468248 1.303371 -0.460937 1.197945 -0.000022 0.000033 -0.000000 -0.000000 0.000000 1.589854 6.403242 -9.207730 40.074236 -4.583097 0.667420 -20.395153 -11.332319 11.438723 -7.445365 0.000002 -0.000002 -0.000000 0.000001 -0.000000 
21.951035 86.695206 2.544791 -19.615958 45.664258 16.123348 8.559274 0.388300 -0.526872 17.440304 0.899840 0.000289 17.530065 0.786934 -0.020915 -1.020147 7.531778 -0.753110 -6.159745 20.344386 10.324828 -0.000001 -0.000001 0.000001 -37.878481 -7.347331 0.463280 -49.434283 -11.888719 -61.443706 -0.000002 -58.016207 0.000014 -118.781539 3.388806 30.268881 4.709228 9.560375 3.111991 19.473195 -1.474909 7.636924 -4.536189 -9.613114 1.492978 0.000001 0.000000 -0.000002 -1.080513 2.495831 -34.518796 2.856123 5.028762 -59.168262 0.473604 2.309468 -23.175515 -0.000003 -0.000000 0.000001 -0.000592 5.036186 -50.029046 3.427056 5.326914 -65.488106 0.295607 1.839150 -18.260668 -0.000001 -0.000000 0.000002 -0.084485 5.595578 -59.150463 4.054891 5.569475 -72.093405 0.582407 2.548424 -25.742068 -0.000000 -0.000004 -0.000002 -6.682878 4.507981 -72.428023 2.829887 5.013070 -58.868417 0.181072 1.446705 -14.267346 0.000000 0.000001 -0.000000 -41.156008 -8.421005 -9.581092 -45.740489 54.563390 98.308292 -0.000347 98.363344 0.000342 -49.780751 -16.029491 -29.584763 9.518227 -2.767936 12.170595 21.602410 -18.200825 -18.407816 -2.424464 -49.875619 -34.178181 -0.000001 -0.000001 0.000004 -0.984935 1.971414 12.476581 0.748743 -2.534445 32.912626 0.615638 -2.316060 29.767822 -0.000000 0.000001 0.000001 3.565689 -7.245546 52.944095 6.306311 -4.356010 110.759618 0.248711 -1.503064 18.790264 -0.000001 -0.000000 -0.000000 -3.305344 -2.670558 57.315485 5.429205 -4.592877 99.552609 1.680138 -3.583025 50.234143 0.000000 0.000002 -0.000002 -3.919233 -3.349078 64.651531 4.000719 -4.610778 81.888224 2.264882 -3.996928 59.063016 -0.000000 0.000002 0.000002 -27.438642 42.435272 33.863241 32.484014 -2.691727 -2.886990 -2.390898 1.388447 -1.119725 0.612301 -0.000023 0.000023 0.000000 -0.000000 0.000000 3.104870 5.270919 -9.591444 38.323372 -3.259063 1.603900 -21.132534 -13.526433 9.852280 -5.864565 0.000009 0.000002 -0.000000 0.000000 0.000000 
22.358629 87.234261 2.949722 -19.403130 45.469440 15.998028 8.266555 0.483582 -0.640471 16.972521 1.007581 -0.190373 17.054199 0.896373 -0.202452 -0.110763 7.555399 -0.674557 -6.437774 20.197727 11.079021 -0.000001 -0.000001 -0.000001 -37.863625 -7.090495 0.837981 -48.349181 -11.407609 -61.679122 0.000011 -58.339391 0.000003 -118.937540 3.507993 30.355594 4.709228 9.560375 3.111990 19.473194 -1.474905 7.636922 -4.536193 -9.613114 1.492974 0.000002 -0.000002 0.000001 -0.815966 2.981182 -35.384147 2.872319 5.038348 -59.352889 0.481207 2.327086 -23.363094 -0.000001 -0.000001 -0.000001 0.105701 5.173119 -50.790718 3.422898 5.325027 -65.443287 0.294175 1.834814 -18.216207 0.000003 0.000001 -0.000002 -0.055113 5.653711 -59.734007 4.063903 5.572370 -72.186234 0.586516 2.556934 -25.834441 -0.000001 -0.000005 -0.000000 -6.659671 4.515307 -72.427394 2.953097 5.085168 -60.268483 0.179684 1.441271 -14.212469 0.000001 0.000001 0.000001 -41.184487 -8.531383 -9.836998 -45.903898 55.017505 99.221632 -0.000581 98.286026 0.000579 -50.014706 -15.941562 -30.013036 9.219159 -3.481884 11.822173 21.490005 -18.320526 -18.379554 -1.934287 -49.863530 -33.710276 -0.000000 -0.000001 -0.000000 -0.967193 1.899789 12.449309 0.748580 -2.534162 32.908586 0.615639 -2.316061 29.767826 -0.000000 0.000000 0.000001 3.514181 -7.228642 52.453169 6.305935 -4.356160 110.754673 0.248707 -1.503066 18.790274 0.000001 -0.000000 -0.000000 -3.316748 -2.635388 57.111668 5.432548 -4.592320 99.594205 1.682783 -3.585211 50.276357 0.000000 -0.000000 0.000003 -3.915654 -3.321476 64.446025 4.002439 -4.611034 81.909630 2.266375 -3.997815 59.084360 -0.000000 0.000000 -0.000001 -25.970507 42.468808 32.873000 31.341925 -2.171147 -2.361618 -1.992165 1.550721 -2.084380 0.000007 0.000010 0.000001 -0.000000 0.000001 -0.000000 4.328293 4.970321 -9.578508 36.413528 -1.753114 2.140609 -21.621319 -15.490218 8.921298 -3.829862 0.000002 0.000005 0.000000 0.000001 0.000000 
